<svg width="360" height="151" viewBox="0 0 360 151" class="css-1j8o68f">
    <g id="SvgjsG4308" featurekey="symbolContainer" transform="matrix(1,0,0,1,0,0)" fill="#026540">
        <rect width="140" height="151" rx="10"></rect>
    </g>
    <g id="SvgjsG4309" featurekey="uHI19F-0" transform="matrix(1.9021329991094635,0,0,1.9021329991094635,10.08565127614894,14.44838138944291)" fill="#d7ea6a">
        <title xmlns="http://www.w3.org/2000/svg">12-Unity</title>
        <g xmlns="http://www.w3.org/2000/svg" data-name="12-Unity">
            <path d="M41.9,44c-.21,1.19-.86,3-2.9,3H28v2H39c4,0,5-3.92,5-6a1,1,0,0,0-1-1H38.62a12,12,0,0,0,0-20H45a1,1,0,0,0,.71-.29l12-12L56.29,8.29,44.59,20H21.1c.21-1.19.86-3,2.9-3H35V15H24c-4,0-5,3.92-5,6a1,1,0,0,0,1,1h5.38a12,12,0,0,0,0,20H18a1,1,0,0,0-.71.29l-12,12,1.41,1.41L18.41,44ZM36,41.16a9.91,9.91,0,0,1-3,.79V38h3ZM38,24a10.07,10.07,0,0,1,2,2H38Zm0,4h3.16a9.91,9.91,0,0,1,.79,3H38Zm0,5h3.95a9.91,9.91,0,0,1-.79,3H38Zm0,5h2a10.07,10.07,0,0,1-2,2ZM33,22.05a9.91,9.91,0,0,1,3,.79V26H33Zm-5,.79a9.91,9.91,0,0,1,3-.79V26H28ZM28,28h8v8H28Zm0,10h3v3.95a9.91,9.91,0,0,1-3-.79ZM26,24v2H24A10.07,10.07,0,0,1,26,24Zm-3.16,4H26v3H22.05A9.91,9.91,0,0,1,22.84,28Zm0,8a9.91,9.91,0,0,1-.79-3H26v3ZM24,38h2v2A10.07,10.07,0,0,1,24,38Z"></path>
            <path d="M55.71,35.29a1,1,0,0,0-1.41,0l-9,9,1.41,1.41,8.21-8.21a4.26,4.26,0,0,1-.63,5.8L42.59,55H22a1,1,0,0,0-.71.29l-7,7,1.41,1.41L22.41,57H43a1,1,0,0,0,.71-.29l12-12C59.43,41,57.33,36.92,55.71,35.29Z"></path>
            <rect x="24" y="47" width="2" height="2"></rect>
            <path d="M8,29a1,1,0,0,0,.71-.29l9-9-1.41-1.41L8.08,26.51a4.26,4.26,0,0,1,.63-5.8L20.41,9H41a1,1,0,0,0,.71-.29l7-7L47.29.29,40.59,7H20a1,1,0,0,0-.71.29l-12,12c-3.72,3.72-1.63,7.79,0,9.41A1,1,0,0,0,8,29Z"></path>
            <rect x="37" y="15" width="2" height="2"></rect>
            <rect x="30" y="30" width="4" height="4" rx="1" ry="1"></rect>
        </g>
    </g>
    <g id="SvgjsG4310" featurekey="8FbbNb-0" transform="matrix(1.9190178620253506,0,0,1.9190178620253506,158.2728816822826,43.916558695802244)" fill="#ffffff">
        <path d="M5.72 10.28 c0.68 0 1.3133 0.13998 1.9 0.41998 s1.0533 0.67334 1.4 1.18 l0.04 0 l0 -1.36 l1.8 0 l0 9.48 c-0.01334 1.4 -0.49334 2.5466 -1.44 3.44 s-2.1934 1.3467 -3.74 1.36 c-1.96 0 -3.5066 -0.56666 -4.64 -1.7 l1.22 -1.52 c0.94666 1.0267 2.08 1.54 3.4 1.54 c1.1333 0 1.9833 -0.29 2.55 -0.87 s0.85 -1.37 0.85 -2.37 l0 -1.44 l-0.06 0 c-0.32 0.56 -0.78334 0.98 -1.39 1.26 s-1.2367 0.42 -1.89 0.42 c-1.3867 0 -2.5334 -0.46334 -3.44 -1.39 s-1.3667 -2.07 -1.38 -3.43 c0.01334 -1.52 0.47 -2.7334 1.37 -3.64 s2.05 -1.3667 3.45 -1.38 z M2.82 15.26 c0 0.94666 0.27662 1.7067 0.82996 2.28 s1.3167 0.87334 2.29 0.9 c0.96 0 1.7167 -0.28666 2.27 -0.86 s0.83668 -1.3467 0.85002 -2.32 c0 -0.98666 -0.28334 -1.78 -0.85 -2.38 s-1.33 -0.90666 -2.29 -0.92 c-0.94666 0 -1.7 0.31334 -2.26 0.94 s-0.84 1.4133 -0.84 2.36 z M18.16 10.28 c1.4 0 2.5866 0.48338 3.56 1.45 s1.4667 2.1434 1.48 3.53 c0 1.4 -0.48666 2.5734 -1.46 3.52 s-2.1666 1.4333 -3.58 1.46 c-1.3867 0 -2.5666 -0.48 -3.54 -1.44 s-1.4733 -2.14 -1.5 -3.54 c0 -1.3733 0.48334 -2.54 1.45 -3.5 s2.1634 -1.4533 3.59 -1.48 z M15.040000000000001 15.26 c0 0.97334 0.28664 1.7633 0.85998 2.37 s1.3267 0.91666 2.26 0.93 c0.94666 0 1.7 -0.30334 2.26 -0.91 s0.84666 -1.4033 0.86 -2.39 c0 -0.97334 -0.28 -1.7633 -0.84 -2.37 s-1.3267 -0.91666 -2.3 -0.93 c-0.94666 0 -1.7 0.31334 -2.26 0.94 s-0.84 1.4133 -0.84 2.36 z M26.400000000000002 10.52 l2.84 7.26 l2.72 -7.26 l1.92 0 l-3.72 9.48 l-1.98 0 l-3.86 -9.48 l2.08 0 z M39.96 10.3 c1.5067 0 2.72 0.5 3.64 1.5 l-1.36 1.24 c-0.65334 -0.70666 -1.44 -1.06 -2.36 -1.06 c-0.88 0 -1.5933 0.31334 -2.14 0.94 s-0.82 1.4333 -0.82 2.42 c0 0.93334 0.28666 1.7 0.86 2.3 s1.3067 0.90666 2.2 0.92 c0.94666 0 1.7133 -0.35334 2.3 -1.06 l1.28 1.28 c-0.85334 0.97334 -2.0534 1.46 -3.6 1.46 c-1.4533 0 -2.6366 -0.45334 -3.55 -1.36 s-1.3833 -2.1 -1.41 -3.58 c0.01334 -1.5067 0.48334 -2.7134 1.41 -3.62 s2.11 -1.3667 3.55 -1.38 z M49.68 10.28 c1.4 0 2.5866 0.48338 3.56 1.45 s1.4667 2.1434 1.48 3.53 c0 1.4 -0.48666 2.5734 -1.46 3.52 s-2.1666 1.4333 -3.58 1.46 c-1.3867 0 -2.5666 -0.48 -3.54 -1.44 s-1.4733 -2.14 -1.5 -3.54 c0 -1.3733 0.48334 -2.54 1.45 -3.5 s2.1634 -1.4533 3.59 -1.48 z M46.56 15.26 c0 0.97334 0.28664 1.7633 0.85998 2.37 s1.3267 0.91666 2.26 0.93 c0.94666 0 1.7 -0.30334 2.26 -0.91 s0.84666 -1.4033 0.86 -2.39 c0 -0.97334 -0.28 -1.7633 -0.84 -2.37 s-1.3267 -0.91666 -2.3 -0.93 c-0.94666 0 -1.7 0.31334 -2.26 0.94 s-0.84 1.4133 -0.84 2.36 z M61.940000000000005 10.28 c1.0667 0 1.9033 0.32 2.51 0.96 s0.91666 1.5 0.93 2.58 l0 6.18 l-1.8 0 l0 -5.66 c0 -0.73334 -0.19 -1.3133 -0.57 -1.74 s-0.91 -0.64 -1.59 -0.64 c-0.84 0 -1.49 0.28 -1.95 0.84 s-0.69 1.3067 -0.69 2.24 l0 4.96 l-1.8 0 l0 -9.48 l1.8 0 l0 1.46 l0.04 0 c0.25334 -0.53334 0.66334 -0.95 1.23 -1.25 s1.1967 -0.45 1.89 -0.45 z M73.06 10.28 c1.0667 0 1.9033 0.32 2.51 0.96 s0.91666 1.5 0.93 2.58 l0 6.18 l-1.8 0 l0 -5.66 c0 -0.73334 -0.19 -1.3133 -0.57 -1.74 s-0.91 -0.64 -1.59 -0.64 c-0.84 0 -1.49 0.28 -1.95 0.84 s-0.69 1.3067 -0.69 2.24 l0 4.96 l-1.8 0 l0 -9.48 l1.8 0 l0 1.46 l0.04 0 c0.25334 -0.53334 0.66334 -0.95 1.23 -1.25 s1.1967 -0.45 1.89 -0.45 z M83.56000000000002 10.28 c1.4533 0 2.5834 0.45664 3.39 1.37 s1.2167 2.17 1.23 3.77 l0 0.5 l-7.6 0 c0 0.77334 0.31 1.4233 0.93 1.95 s1.3767 0.79666 2.27 0.81 c0.98666 0 1.8533 -0.47334 2.6 -1.42 l1.36 1.04 c-1.0133 1.2933 -2.4134 1.94 -4.2 1.94 c-1.4533 0 -2.6234 -0.46334 -3.51 -1.39 s-1.3433 -2.1234 -1.37 -3.59 c0 -1.4133 0.45666 -2.59 1.37 -3.53 s2.09 -1.4233 3.53 -1.45 z M86.26000000000002 14.48 c-0.02666 -0.89334 -0.28 -1.5767 -0.76 -2.05 s-1.14 -0.71 -1.98 -0.71 c-0.56 0 -1.0633 0.13666 -1.51 0.41 s-0.79666 0.62668 -1.05 1.06 s-0.38 0.86334 -0.38 1.29 l5.68 0 z M94.84000000000002 10.3 c1.5067 0 2.72 0.5 3.64 1.5 l-1.36 1.24 c-0.65334 -0.70666 -1.44 -1.06 -2.36 -1.06 c-0.88 0 -1.5933 0.31334 -2.14 0.94 s-0.82 1.4333 -0.82 2.42 c0 0.93334 0.28666 1.7 0.86 2.3 s1.3067 0.90666 2.2 0.92 c0.94666 0 1.7133 -0.35334 2.3 -1.06 l1.28 1.28 c-0.85334 0.97334 -2.0534 1.46 -3.6 1.46 c-1.4533 0 -2.6366 -0.45334 -3.55 -1.36 s-1.3833 -2.1 -1.41 -3.58 c0.01334 -1.5067 0.48334 -2.7134 1.41 -3.62 s2.11 -1.3667 3.55 -1.38 z M102.48000000000002 7.859999999999999 l-0.000019531 2.66 l2.58 0 l0 1.56 l-2.58 0 l0 4.56 c0 0.61334 0.08666 1.0867 0.26 1.42 s0.54 0.5 1.1 0.5 c0.53334 0 0.96 -0.09334 1.28 -0.28 l0 1.64 c-0.34666 0.18666 -0.89332 0.29332 -1.64 0.31998 c-0.72 0 -1.2767 -0.11 -1.67 -0.33 s-0.68 -0.52666 -0.86 -0.92 s-0.27 -1.01 -0.27 -1.85 l0 -5.06 l-2.08 0 l0 -1.56 l2.08 0 l0 -2.66 l1.8 0 z"></path>
    </g>
</svg>
